<mxfile host="drawio-plugin" modified="2023-01-07T14:41:35.878Z" agent="5.0 (Macintosh; Intel Mac OS X 10_15_7) AppleWebKit/537.36 (KHTML, like Gecko) Chrome/104.0.5112.102 Safari/537.36" etag="x4Rne-LdHRA19zGqu_rc" version="20.5.3" type="embed"><diagram id="e4NLZE9ZDRyH0RCEtJ0_" name="Page-1"><mxGraphModel dx="1011" dy="778" grid="1" gridSize="10" guides="1" tooltips="1" connect="1" arrows="1" fold="1" page="1" pageScale="1" pageWidth="850" pageHeight="1100" math="0" shadow="0"><root><mxCell id="0"/><mxCell id="1" parent="0"/><mxCell id="12" style="edgeStyle=orthogonalEdgeStyle;rounded=0;orthogonalLoop=1;jettySize=auto;html=1;entryX=0;entryY=0.5;entryDx=0;entryDy=0;" parent="1" source="5" target="11" edge="1"><mxGeometry relative="1" as="geometry"/></mxCell><mxCell id="5" value="BankingAppWithdrawalService" style="whiteSpace=wrap;html=1;aspect=fixed;" parent="1" vertex="1"><mxGeometry x="40" y="130" width="180" height="180" as="geometry"/></mxCell><mxCell id="6" value="CurrentAccount" style="whiteSpace=wrap;html=1;" parent="1" vertex="1"><mxGeometry x="610" y="80" width="120" height="60" as="geometry"/></mxCell><mxCell id="7" value="deposit&lt;br&gt;withdrawal" style="whiteSpace=wrap;html=1;" parent="1" vertex="1"><mxGeometry x="610" y="350" width="120" height="60" as="geometry"/></mxCell><mxCell id="8" value="deposit&lt;br&gt;withdrawal" style="rounded=1;whiteSpace=wrap;html=1;" parent="1" vertex="1"><mxGeometry x="610" y="150" width="120" height="60" as="geometry"/></mxCell><mxCell id="9" value="savingsAccount" style="rounded=1;whiteSpace=wrap;html=1;" parent="1" vertex="1"><mxGeometry x="610" y="280" width="120" height="60" as="geometry"/></mxCell><mxCell id="10" value="Now If any new type of account comes into picture, it is forced to extend base class Account. Now BankingAppWithdrawalService is only dependent on base class Account, it has no effect when we add new type of account.&lt;br&gt;" style="rounded=0;whiteSpace=wrap;html=1;" parent="1" vertex="1"><mxGeometry x="60" y="460" width="410" height="110" as="geometry"/></mxCell><mxCell id="13" style="edgeStyle=orthogonalEdgeStyle;rounded=0;orthogonalLoop=1;jettySize=auto;html=1;entryX=0;entryY=0.5;entryDx=0;entryDy=0;exitX=1;exitY=0.25;exitDx=0;exitDy=0;" parent="1" source="11" target="6" edge="1"><mxGeometry relative="1" as="geometry"><Array as="points"><mxPoint x="440" y="180"/><mxPoint x="520" y="180"/><mxPoint x="520" y="110"/></Array></mxGeometry></mxCell><mxCell id="15" style="edgeStyle=orthogonalEdgeStyle;rounded=0;orthogonalLoop=1;jettySize=auto;html=1;entryX=0;entryY=0.5;entryDx=0;entryDy=0;" parent="1" source="11" target="9" edge="1"><mxGeometry relative="1" as="geometry"><Array as="points"><mxPoint x="525" y="240"/><mxPoint x="525" y="310"/></Array></mxGeometry></mxCell><mxCell id="11" value="Account&lt;br&gt;&lt;br&gt;(say abstract class/ interface which every subclass to extend/implement and implement all of it's functionality along with their unique one's)" style="rounded=0;whiteSpace=wrap;html=1;" parent="1" vertex="1"><mxGeometry x="320" y="145" width="120" height="150" as="geometry"/></mxCell></root></mxGraphModel></diagram></mxfile>